<svg
   xmlns="http://www.w3.org/2000/svg"
   version="1.1"
   width="75"
   height="75"
   id="svg3967">
  <g
     transform="translate(0,-977.36218)">
    <path
       d="m 55.684658,48.736034 a 16.162441,15.404826 0 1 1 -32.324882,0 16.162441,15.404826 0 1 1 32.324882,0 z"
       transform="matrix(1.1265051,0,0,1.1265051,-7.1131025,970.37703)"
       style="fill:#ffffff;fill-opacity:1;stroke:none" />
    <rect
       width="9.8147497"
       height="7.6811085"
       x="32.003651"
       y="1004.3687"
       style="fill:#ffffff;fill-opacity:1;stroke:none" />
    <path
       d="m 37.206604,1004.4628 c 0,0 0.597489,-4.6302 -3.243922,-8.9034 -4.201434,-4.67364 -17.588882,-6.20038 -18.848498,8.7247"
       style="fill:none;stroke:#ffffff;stroke-width:1.13130081px;stroke-linecap:butt;stroke-linejoin:miter;stroke-opacity:1" />
    <path
       d="m 55.053312,28.154176 -1.541554,-0.676316 -0.515734,1.60244 -0.611816,-1.568272 -1.497775,0.768417 0.676317,-1.541555 -1.60244,-0.515733 1.568272,-0.611816 -0.768418,-1.497775 1.541555,0.676317 0.515734,-1.602441 0.611815,1.568272 1.497775,-0.768417 -0.676316,1.541555 1.60244,0.515733 -1.568272,0.611816 z"
       transform="matrix(-0.71875358,0.87232529,0.88032417,0.71222277,29.70001,939.98779)"
       style="fill:#ffffff;fill-opacity:1;stroke:none" />
  </g>
</svg>
